# xmcd CD database file generated by OrangeCD 5.1
#
# Track frame offsets:
#	150
#	14385
#	28502
#	47280
#	63962
#	77747
#	95362
#	110102
#	123010
#	137985
#	140297
#
# Disc length: 2092 seconds
#
# Revision: 2
# Processed by: cddbd v1.4PL0 Copyright (c) Steve Scherf et al.
# Submitted via: OrangeCD 5.1
#
DISCID=88082a0b
DTITLE=Billy Dean - Billy Dean
DYEAR=1991
DGENRE=Country
TTITLE0=Billy The Kid
TTITLE1=Simple Things
TTITLE2=Hammer Down
TTITLE3=Only The Wind
TTITLE4=Small Favors
TTITLE5=I Shoulda Listened
TTITLE6=You Don't Count The Cost
TTITLE7=Gone But Not Forgotten
TTITLE8=If There Hadn't Been You
TTITLE9=Intro: Daddy's Will
TTITLE10=Daddy's Will
EXTD=
EXTT0=
EXTT1=
EXTT2=
EXTT3=
EXTT4=
EXTT5=
EXTT6=
EXTT7=
EXTT8=
EXTT9=
EXTT10=
PLAYORDER=
